# xmcd
#
# Track frame offsets: 
#        150
#        19244
#        41650
#        74157
#        98857
#        117282
#        126402
#        154253
#        181845
#        221180
#
# Disc length: 3255 seconds
#
# Revision: 0
# Processed by: cddbd v1.5.2PL0 Copyright (c) Steve Scherf et al.
# Submitted via: ExactAudioCopyFreeDBPlugin 1.0
#
DISCID=980cb50a
DTITLE=Janis Joplin - Cry Baby Live at Woodstock
DYEAR=1900
DGENRE=Oldies
TTITLE0=Try (Just A Little Bit Harder
TTITLE1=To Love Somebody
TTITLE2=Work Me Lord
TTITLE3=Ball And Chain
TTITLE4=Piece Of My Heart
TTITLE5=Combination Of The Two
TTITLE6=Cry Baby
TTITLE7=Tell Mama
TTITLE8=Move Over
TTITLE9=Kozmic Blues
EXTD=
EXTT0=
EXTT1=
EXTT2=
EXTT3=
EXTT4=
EXTT5=
EXTT6=
EXTT7=
EXTT8=
EXTT9=
PLAYORDER=
